<svg xmlns="http://www.w3.org/2000/svg" width="60" height="60" viewBox="0 0 60 60"><defs><style>.a{fill:#fff;}</style></defs><g transform="translate(0 0)"><rect class="a" width="60" height="60" rx="30"/><g transform="translate(11.402 18.833)"><path d="M1035.49-294.3c.283.03.4-.187.55-.351a8.719,8.719,0,0,1,2.052-1.569,16.448,16.448,0,0,1,2.084-1,.384.384,0,0,0,.226-.2,1.674,1.674,0,0,1,.255-.377.151.151,0,0,0,0-.228,2.094,2.094,0,0,1-.49-1.16,2.013,2.013,0,0,1,.371-1.373c.193-.276.2-.269,0-.535a2.1,2.1,0,0,1,.112-2.554,5.321,5.321,0,0,1,1.729-1.317,14.56,14.56,0,0,1,3.163-1.127,30.122,30.122,0,0,1,3.479-.624c.527-.068,1.057-.107,1.586-.162a.349.349,0,0,0,.191-.076,2.712,2.712,0,0,1,1.923-.6c1.119.068,2.24.119,3.358.209.4.032.8.061,1.207.07a1.408,1.408,0,0,1,1.033.483.388.388,0,0,0,.256.124,21.767,21.767,0,0,1,5.655,1.4,6.517,6.517,0,0,1,2.1,1.315,2.35,2.35,0,0,1,.773,1.566,2.1,2.1,0,0,1-.409,1.332c-.16.23-.16.23.008.457a2.09,2.09,0,0,1,.023,2.416.466.466,0,0,1-.063.084.232.232,0,0,0,0,.386.211.211,0,0,1,.053.069c.123.347.425.463.732.586a12.678,12.678,0,0,1,2.151,1.1,6.915,6.915,0,0,1,2.2,2.054,3.2,3.2,0,0,1,.055,3.6,6.2,6.2,0,0,1-1.876,1.885,16.049,16.049,0,0,1-4.1,1.952,31.2,31.2,0,0,1-4.886,1.172c-.876.143-1.757.251-2.641.338-1.274.125-2.551.178-3.831.215-1.164.033-2.326,0-3.487-.055a41.577,41.577,0,0,1-5.065-.549c-.968-.163-1.93-.361-2.878-.613a20.865,20.865,0,0,1-4.707-1.786,8.629,8.629,0,0,1-2.514-1.934,3.719,3.719,0,0,1-.97-2.2,3.251,3.251,0,0,1,.541-1.961c.053-.084.109-.166.165-.248.032-.048.1-.094.081-.147C1035.645-294.329,1035.56-294.258,1035.49-294.3Zm18.125,5.469c-.5-.01-.993,0-1.49-.027-1.127-.051-2.249-.138-3.368-.282a25.823,25.823,0,0,1-4.216-.862,11.311,11.311,0,0,1-2.73-1.173,4.148,4.148,0,0,1-1.246-1.115,2.063,2.063,0,0,1-.394-1.469,1.94,1.94,0,0,1,.408-1.01c.125-.156.159-.268.006-.429a1.355,1.355,0,0,1-.306-.566c-.042-.145-.1-.165-.24-.1a13.725,13.725,0,0,0-1.91,1.031,5.441,5.441,0,0,0-1.611,1.516,2.1,2.1,0,0,0-.117,2.318,4.042,4.042,0,0,0,.895,1.071,11.373,11.373,0,0,0,3.3,1.9,22.778,22.778,0,0,0,2.732.887,33.292,33.292,0,0,0,3.709.744c1.086.157,2.179.256,3.275.34,1.29.1,2.581.106,3.872.109.787,0,1.576-.02,2.363-.083.8-.064,1.606-.115,2.407-.209,1.022-.12,2.037-.271,3.047-.465a25.986,25.986,0,0,0,4.724-1.351,12.686,12.686,0,0,0,2.442-1.261,5.468,5.468,0,0,0,1.6-1.546,2.077,2.077,0,0,0,.159-2.1,3.992,3.992,0,0,0-1.181-1.41,11.222,11.222,0,0,0-2.565-1.5c-.116-.052-.167-.019-.2.1a1.619,1.619,0,0,1-.324.6c-.135.152-.1.254.008.4a1.983,1.983,0,0,1,.313,1.938,2.894,2.894,0,0,1-1.062,1.341,10.379,10.379,0,0,1-3.472,1.585,26.832,26.832,0,0,1-4.662.87A35.031,35.031,0,0,1,1053.616-288.836Zm.977-13.144c-.7-.051-1.409-.107-2.115-.152-.833-.054-1.667-.1-2.5-.15a1.349,1.349,0,0,1-1.345-1.429,3.879,3.879,0,0,0,0-.474,2,2,0,0,1,.286-1.191c.02-.032.063-.069.028-.108s-.077-.011-.117-.005q-1.033.141-2.053.35a17.176,17.176,0,0,0-2.958.859,6.044,6.044,0,0,0-2.093,1.248.921.921,0,0,0-.136,1.316,2.8,2.8,0,0,0,.6.562,9.2,9.2,0,0,0,2.485,1.157,2.419,2.419,0,0,1,1.63,1.715,10.867,10.867,0,0,1,.241,2.137,11.542,11.542,0,0,0,.182,1.582,1.353,1.353,0,0,0,.569,1.018.538.538,0,0,0,.782-.194,2.55,2.55,0,0,0,.182-.473c.2-.744.281-1.514.513-2.249a3.341,3.341,0,0,1,1.532-1.975,3.3,3.3,0,0,1,4.15.7c.313.345.522.76.8,1.126a1.555,1.555,0,0,0,1.468.71.765.765,0,0,0,.573-.32,5.118,5.118,0,0,0,.6-1.225,3.113,3.113,0,0,1,1.953-1.831,13.454,13.454,0,0,1,1.512-.379,13.168,13.168,0,0,0,3.074-1.113,3.566,3.566,0,0,0,1.2-.928.807.807,0,0,0,.094-1.06,2.957,2.957,0,0,0-1.073-.934,11.453,11.453,0,0,0-2.642-1.066,23.559,23.559,0,0,0-2.977-.64.37.37,0,0,0-.444.295,2.2,2.2,0,0,1-.718,1.2c-.463.4-.946.779-1.4,1.185A2.662,2.662,0,0,1,1054.593-301.981Zm-.83,11.934a40.52,40.52,0,0,0,4.16-.24,27.094,27.094,0,0,0,3.855-.715,13.087,13.087,0,0,0,2.415-.885,4.123,4.123,0,0,0,1.45-1.052.852.852,0,0,0,.048-1.125c-.069-.1-.116-.128-.232-.051a7.772,7.772,0,0,1-1.242.647,18.341,18.341,0,0,1-3.489,1.04,32.684,32.684,0,0,1-4.6.6,36.38,36.38,0,0,1-3.645.058c-1.321-.049-2.635-.148-3.945-.32a25.917,25.917,0,0,1-3.342-.647,12.1,12.1,0,0,1-3.442-1.4c-.1-.063-.135-.01-.181.052a.869.869,0,0,0,.037,1.157,3.363,3.363,0,0,0,.931.762,11.513,11.513,0,0,0,2.905,1.159,26.589,26.589,0,0,0,4.708.812C1051.307-290.092,1052.464-290.052,1053.763-290.047Zm.861-2.948c.3-.007.607-.012.911-.025a31.785,31.785,0,0,0,3.553-.349,22.048,22.048,0,0,0,3.428-.78,10.112,10.112,0,0,0,2.274-.991,2.918,2.918,0,0,0,.9-.791.828.828,0,0,0,0-1.054c-.071-.1-.127-.117-.239-.047a10.611,10.611,0,0,1-2.389,1.07,26.121,26.121,0,0,1-4.651.99,4.131,4.131,0,0,0-1.017.164,2.088,2.088,0,0,1-.946.121,5.2,5.2,0,0,0-.961-.04c-.507.054-1.016.032-1.524.049-.882.029-1.764-.024-2.646-.063-.466-.021-.931-.071-1.4-.118-.25-.025-.272-.022-.317.221a5.339,5.339,0,0,1-.374,1.292c-.04.085-.03.124.074.137.9.113,1.8.177,2.707.2C1052.883-292.98,1053.754-292.939,1054.624-293Zm2.781-12.636c0-.074,0-.109,0-.144,0-.266,0-.279-.261-.3-.652-.05-1.3-.09-1.957-.13-.863-.053-1.725-.1-2.588-.154a1.348,1.348,0,0,0-.88.233c-.526.368-1.04.754-1.556,1.138a.784.784,0,0,0-.314.637c-.006.2.011.4,0,.6s.077.248.242.258q1.136.072,2.272.146c.688.044,1.375.086,2.063.135a1.406,1.406,0,0,0,1.072-.277c.446-.377.89-.757,1.347-1.121A1.15,1.15,0,0,0,1057.4-305.631Zm1.313,9.385a.992.992,0,0,0,.1,0,24.965,24.965,0,0,0,2.83-.568,12.99,12.99,0,0,0,2.778-1.038,3.837,3.837,0,0,0,1.194-.9.855.855,0,0,0,.093-1.123c-.076-.123-.141-.148-.275-.065a10.6,10.6,0,0,1-2.325,1.049,25.719,25.719,0,0,1-2.505.655,2.356,2.356,0,0,0-1.234.657A5.556,5.556,0,0,0,1058.717-296.246Zm-13.072,2.37a7.057,7.057,0,0,1-.26-1.509c-.012-.2-.094-.26-.27-.307a12.074,12.074,0,0,1-3.348-1.359c-.1-.062-.144-.021-.2.052a.885.885,0,0,0,.083,1.2,3.668,3.668,0,0,0,.857.689,10.032,10.032,0,0,0,2.16.948C1044.978-294.062,1045.294-293.98,1045.646-293.877Zm-.372-3.153c-.033-.289-.042-.519-.087-.741a1.293,1.293,0,0,0-.858-1.061c-.133-.045-.266-.087-.4-.134a10.345,10.345,0,0,1-2.17-1.01c-.052-.034-.1-.066-.15,0a.828.828,0,0,0-.172.906,2.413,2.413,0,0,0,.978.973,10.61,10.61,0,0,0,2.682,1.14C1045.257-296.905,1045.289-296.95,1045.274-297.029Zm7.868,1.124c.31,0,.62,0,.93,0,.049,0,.118.025.142-.034s-.035-.094-.063-.136c-.113-.171-.225-.342-.342-.509a2.2,2.2,0,0,0-1.89-1.068,2.1,2.1,0,0,0-1.948,1.469c-.037.106-.015.128.091.137C1051.087-295.966,1052.113-295.9,1053.142-295.905Z" transform="translate(-1034.883 307.57)"/></g></g></svg>