<svg xmlns="http://www.w3.org/2000/svg" width="58" height="40.299" viewBox="0 0 58 40.299"><defs><style>.a{fill:none;stroke:#ff88ad;stroke-linecap:round;stroke-linejoin:round;stroke-width:2px;}</style></defs><g transform="translate(1 1.001)"><path class="a" d="M25.533,12.766A12.766,12.766,0,0,0,12.4.005,12.912,12.912,0,0,0,0,12.7,12.76,12.76,0,0,0,9.529,25.1,15.519,15.519,0,0,1,0,28.369V38.3H0A25.533,25.533,0,0,0,25.533,12.766Z" transform="translate(0 0)"/><path class="a" d="M25.533,12.766A12.766,12.766,0,0,0,12.4.005,12.912,12.912,0,0,0,0,12.7,12.76,12.76,0,0,0,9.529,25.1,15.519,15.519,0,0,1,0,28.369V38.3H0A25.533,25.533,0,0,0,25.533,12.766Z" transform="translate(30.467 0)"/></g></svg>